<svg width="185" height="40" viewBox="0 0 364 79" fill="none" xmlns="http://www.w3.org/2000/svg">
<path d="M85.187 46.5863L81.369 49.3744L81.3176 49.4082L65.5321 60.9496C64.8815 61.4228 64.4878 62.1663 64.4878 62.9605V77.9829C64.4878 78.8109 65.4979 79.301 66.1999 78.794L85.2726 64.8531C87.2244 63.4168 88.3715 61.22 88.3715 58.8712V58.398V40.4185C88.3715 42.8349 87.1901 45.0992 85.187 46.5694V46.5863Z" fill="#BC16FE"/>
<path d="M85.2726 34.2714L66.1999 20.4164C65.4979 19.9126 64.4878 20.3828 64.4878 21.2225V36.1523C64.4878 36.9417 64.8644 37.6806 65.5321 38.1508L81.3176 49.6043L81.369 49.5707L85.187 46.7997C87.1901 45.3386 88.3715 43.0883 88.3715 40.6867V40.2165C88.3715 37.8821 87.2244 35.6989 85.2726 34.2714Z" fill="url(#paint0_linear_150_571)"/>
<path d="M114.219 20.398L95.1463 34.345C93.1945 35.782 92.0474 37.9797 92.0474 40.3296V40.8029V58.7904C92.0474 56.3729 93.2287 54.1075 95.2318 52.6368L99.0498 49.8474L99.1012 49.8136L114.887 38.2671C115.537 37.7937 115.931 37.0499 115.931 36.2553V21.2264C115.931 20.398 114.921 19.9077 114.219 20.4149V20.398Z" fill="#BC16FE"/>
<path d="M95.2318 52.4096C93.2287 53.8706 92.0474 56.121 92.0474 58.5226V58.9928C92.0474 61.3272 93.1945 63.5104 95.1462 64.9379L112.747 77.7181C112.747 77.7181 112.918 77.7181 112.986 77.6845C112.901 77.7013 112.832 77.7181 112.747 77.7181L114.219 78.7929C114.921 79.2967 115.931 78.8265 115.931 77.9868V63.0569C115.931 62.2676 115.554 61.5287 114.887 61.0585L99.1012 49.605L99.0498 49.6386L95.2318 52.4096Z" fill="url(#paint1_linear_150_571)"/>
<path d="M59.4733 20.209H45.7756C45.2049 20.209 44.7013 20.5784 44.5166 21.1158L30.6679 56.5984L16.8191 21.1158C16.6344 20.5784 16.1308 20.209 15.5601 20.209H1.50985C0.569816 20.209 -0.0680865 21.1662 0.284428 22.0394L23.0468 78.1768C23.2482 78.6806 23.7351 78.9997 24.2722 78.9997H36.7278C37.2649 78.9997 37.7517 78.6638 37.9531 78.1768L60.7155 22.0394C61.068 21.1662 60.4302 20.209 59.4901 20.209H59.4733Z" fill="black"/>
<path d="M161.767 59.2237C161.24 58.6865 160.399 58.7201 159.888 59.2573C157.267 62.0105 153.559 63.7228 149.439 63.7228C141.527 63.7228 135.099 57.3938 135.099 49.6043C135.099 41.8148 141.527 35.4858 149.439 35.4858C153.411 35.4858 156.987 37.0639 159.591 39.6324C160.102 40.1528 160.926 40.1528 161.437 39.6324L170.37 30.5334C170.898 29.9962 170.881 29.1401 170.337 28.6196C164.964 23.4154 157.581 20.209 149.439 20.209C132.957 20.209 119.606 33.3706 119.606 49.6043C119.606 65.8381 132.957 78.9997 149.439 78.9997C157.745 78.9997 165.245 75.6589 170.651 70.27C171.178 69.7496 171.178 68.9102 170.667 68.373L161.767 59.2237Z" fill="black"/>
<path d="M363.936 50.7189V48.7656L363.885 1.31889C363.885 0.584321 363.299 0 362.563 0H349.536C348.8 0 348.214 0.584321 348.214 1.31889V24.1407C343.911 21.8369 338.938 20.5347 333.63 20.5347C316.887 20.5347 303.324 33.6234 303.324 49.7673C303.324 65.9112 316.887 79 333.63 79C338.938 79 343.944 77.6811 348.281 75.3605V77.6811C348.281 78.4156 348.883 79 349.603 79H362.63C363.366 79 363.952 78.4156 363.952 77.6811L363.919 50.7189H363.936ZM333.647 63.8077C325.61 63.8077 319.08 57.5137 319.08 49.7673C319.08 42.0209 325.61 35.727 333.647 35.727C341.684 35.727 348.214 42.0209 348.214 49.7673C348.214 57.5137 341.7 63.8077 333.647 63.8077Z" fill="black"/>
<path d="M235.282 48.7563C235.282 48.622 235.282 48.5044 235.282 48.3701C235.282 48.0846 235.248 47.8159 235.231 47.5304C235.231 47.2954 235.198 47.077 235.181 46.8587C235.181 46.758 235.181 46.6572 235.148 46.5565C235.148 46.4725 235.148 46.3718 235.114 46.2878C235.081 46.0359 235.064 45.784 235.014 45.5321C234.98 45.2635 234.93 44.9948 234.88 44.7261C234.88 44.6085 234.846 44.4742 234.813 44.3567V44.3231C234.762 44.088 234.729 43.8697 234.679 43.6346C234.679 43.601 234.679 43.5506 234.645 43.5002C234.511 42.8789 234.36 42.2744 234.176 41.6699C234.109 41.418 234.026 41.1829 233.959 40.9478C233.724 40.2257 233.473 39.5204 233.205 38.8319C233.054 38.4625 232.903 38.093 232.736 37.7236C232.669 37.5557 232.585 37.3878 232.501 37.2198C232.418 37.0351 232.317 36.8336 232.217 36.6489C232.133 36.4642 232.032 36.2962 231.949 36.1115C231.664 35.5742 231.379 35.0536 231.061 34.5498C230.977 34.4155 230.894 34.2811 230.81 34.13C230.693 33.9285 230.559 33.7438 230.441 33.5591C230.257 33.2904 230.056 33.0049 229.872 32.7362C229.604 32.35 229.118 31.7455 228.834 31.376C228.716 31.2249 228.599 31.0738 228.482 30.9394C227.795 30.1334 227.075 29.3609 226.321 28.6388C226.288 28.6053 226.271 28.5885 226.238 28.5717C226.137 28.4709 226.037 28.3702 225.919 28.2694C225.852 28.2022 225.785 28.1519 225.718 28.0847C225.651 28.0175 225.568 27.9503 225.501 27.8832C225.45 27.8496 225.417 27.816 225.367 27.7656C225.317 27.732 225.283 27.6817 225.233 27.6481C225.216 27.6481 225.183 27.6145 225.183 27.5977C225.065 27.4969 224.948 27.3962 224.848 27.2954C224.714 27.1947 224.596 27.0771 224.462 26.9764C224.412 26.926 224.345 26.8756 224.278 26.8252C224.178 26.7413 224.077 26.6573 223.96 26.5734C223.859 26.5062 223.759 26.4222 223.675 26.3551C223.625 26.3047 223.575 26.2711 223.524 26.2375C223.39 26.1368 223.273 26.036 223.139 25.952C223.089 25.9017 223.022 25.8681 222.955 25.8177C222.855 25.7337 222.737 25.6666 222.637 25.5826C222.553 25.5154 222.469 25.4651 222.369 25.3979C222.235 25.2971 222.101 25.2132 221.95 25.1124C221.9 25.0788 221.833 25.0452 221.783 24.9949C221.598 24.8773 221.414 24.7598 221.23 24.6422C221.063 24.5415 220.895 24.4407 220.728 24.34C220.61 24.2728 220.476 24.1888 220.359 24.1216L219.957 23.9033C219.957 23.9033 219.84 23.8362 219.773 23.8026C219.622 23.7186 219.455 23.6347 219.287 23.5507C219.153 23.4835 219.019 23.3996 218.885 23.3324C218.852 23.3324 218.835 23.2988 218.802 23.282C218.651 23.2149 218.5 23.1309 218.349 23.0637C218.232 23.0133 218.115 22.963 218.014 22.9126C217.395 22.6271 216.758 22.3584 216.105 22.1065C216.072 22.1065 216.038 22.073 216.005 22.0562C215.938 22.0226 215.854 22.0058 215.787 21.9722C215.67 21.9218 215.552 21.8882 215.452 21.8379C215.402 21.8379 215.368 21.8043 215.335 21.7875C215.184 21.7371 215.016 21.6867 214.866 21.6364C214.799 21.6028 214.715 21.586 214.631 21.5692C214.631 21.5692 214.598 21.5692 214.581 21.5692C214.581 21.5692 214.548 21.5692 214.531 21.5692C214.481 21.5524 214.43 21.5356 214.38 21.5188C214.33 21.5188 214.263 21.4852 214.213 21.4684C214.112 21.4348 214.028 21.4181 213.928 21.3845C213.727 21.3173 213.526 21.2669 213.308 21.2165C213.074 21.1494 212.822 21.0822 212.588 21.0318H212.555C212.555 21.0318 212.521 21.0318 212.504 21.0318C212.454 21.0318 212.387 20.9982 212.337 20.9982C212.22 20.9647 212.086 20.9311 211.968 20.9143C211.968 20.9143 211.935 20.9143 211.918 20.9143C211.65 20.8471 211.382 20.7967 211.131 20.7463C211.097 20.7463 211.081 20.7463 211.064 20.7463C211.014 20.7463 210.98 20.7464 210.93 20.7296C210.813 20.696 210.696 20.6792 210.578 20.6624C210.511 20.6624 210.461 20.6456 210.394 20.6288C210.377 20.6288 210.344 20.6288 210.327 20.6288C210.093 20.5784 209.875 20.5448 209.64 20.5113C209.372 20.4609 209.104 20.4441 208.836 20.4105C208.635 20.3769 208.451 20.3601 208.25 20.3433C208.2 20.3433 208.167 20.3433 208.133 20.3433C207.815 20.3097 207.497 20.293 207.195 20.2594C207.044 20.2594 206.894 20.2426 206.76 20.2258C206.709 20.2258 206.642 20.2258 206.592 20.2258C206.559 20.2258 206.525 20.2258 206.475 20.2258C206.257 20.2258 206.04 20.2258 205.822 20.209C205.571 20.209 205.319 20.209 205.051 20.209C190.146 20.209 177.752 30.6372 175.206 44.3735C174.888 46.0695 174.721 47.8159 174.721 49.5959C174.721 51.3759 174.888 53.1392 175.206 54.852C177.752 68.5883 190.146 78.9997 205.035 78.9997C205.286 78.9997 205.554 78.9997 205.805 78.9997C206.04 78.9997 206.274 78.9997 206.508 78.9829C206.508 78.9829 206.525 78.9829 206.542 78.9829C206.575 78.9829 206.609 78.9829 206.642 78.9829C206.776 78.9829 206.91 78.9829 207.044 78.9661C207.145 78.9661 207.262 78.9661 207.363 78.9493C207.513 78.9493 207.664 78.9157 207.815 78.8989C207.915 78.8989 208.016 78.8989 208.116 78.8653C208.15 78.8653 208.167 78.8653 208.183 78.8653C208.384 78.8485 208.568 78.8149 208.769 78.7982C208.803 78.7982 208.836 78.7982 208.87 78.7982C208.937 78.7982 209.004 78.7981 209.071 78.7646C209.305 78.731 209.54 78.6974 209.791 78.6638C209.992 78.6302 210.176 78.6134 210.377 78.5631H210.411C210.645 78.5127 210.88 78.4791 211.114 78.4287C211.332 78.3783 211.55 78.3447 211.767 78.2944C211.801 78.2944 211.818 78.2944 211.834 78.2944C211.834 78.2944 211.868 78.2944 211.885 78.2944C212.086 78.244 212.303 78.1936 212.504 78.1432C212.538 78.1432 212.555 78.1432 212.571 78.1264C212.588 78.1264 212.605 78.1264 212.622 78.1264C212.806 78.0761 212.973 78.0425 213.157 77.9921C213.208 77.9921 213.241 77.9585 213.291 77.9417C213.392 77.9081 213.492 77.8914 213.593 77.8578C213.71 77.8242 213.811 77.7906 213.928 77.757C213.978 77.757 214.028 77.7234 214.079 77.7066L214.33 77.6227C214.615 77.5387 214.899 77.438 215.184 77.354C215.217 77.354 215.234 77.3372 215.268 77.3204C215.318 77.3204 215.385 77.2868 215.435 77.27C215.67 77.1861 215.887 77.1021 216.122 77.0182C216.155 77.0182 216.189 76.9846 216.222 76.9846C216.323 76.9342 216.423 76.9006 216.541 76.8502C216.792 76.7495 217.026 76.6487 217.277 76.548C217.277 76.548 217.311 76.5479 217.328 76.5312C217.395 76.4976 217.462 76.4808 217.529 76.4472C217.579 76.4472 217.612 76.4136 217.663 76.3968C217.73 76.3632 217.813 76.3296 217.897 76.2961C218.048 76.2289 218.182 76.1617 218.316 76.0946C218.366 76.061 218.433 76.0442 218.483 76.0106C218.634 75.9434 218.768 75.8762 218.919 75.7923C219.003 75.7419 219.086 75.7083 219.17 75.6579C219.27 75.6076 219.371 75.5572 219.488 75.5068C219.572 75.4564 219.672 75.4061 219.756 75.3557C219.89 75.2885 220.024 75.2045 220.158 75.1374C220.56 74.9191 220.945 74.684 221.33 74.4489C221.381 74.4153 221.431 74.3985 221.464 74.3649C221.464 74.3649 221.498 74.3649 221.498 74.3313C221.515 74.3313 221.548 74.2977 221.565 74.281C221.615 74.2474 221.665 74.2138 221.716 74.1802C221.716 74.1802 221.732 74.1802 221.749 74.1634C221.816 74.113 221.866 74.0794 221.933 74.0459C221.933 74.0459 221.967 74.0459 221.984 74.0291C222.017 74.0123 222.051 73.9787 222.101 73.9619C222.151 73.9283 222.201 73.8947 222.252 73.8611C222.252 73.8611 222.252 73.8611 222.268 73.8611C222.335 73.8276 222.402 73.7772 222.469 73.7268C222.536 73.6764 222.603 73.6428 222.67 73.5925C222.871 73.4581 223.072 73.3238 223.257 73.1726C223.457 73.0215 223.642 72.8872 223.843 72.736C223.993 72.6185 224.144 72.5009 224.295 72.3834C224.395 72.2994 224.513 72.2155 224.613 72.1315C224.73 72.0308 224.848 71.93 224.965 71.8292C225.149 71.6781 225.333 71.5102 225.501 71.359C225.685 71.2079 225.852 71.04 226.037 70.8721C226.221 70.7041 226.388 70.5362 226.556 70.3683C226.589 70.3347 226.623 70.3011 226.656 70.2675C227.092 69.747 227.075 68.9745 226.589 68.4707L217.545 59.3188C217.043 58.815 216.273 58.815 215.737 59.2516C215.737 59.2516 215.703 59.2852 215.686 59.302C215.686 59.302 215.653 59.3356 215.653 59.3524C214.514 60.5279 213.174 61.5186 211.684 62.2575H211.65C211.633 62.2575 211.6 62.2911 211.583 62.2911C211.466 62.3415 211.365 62.3918 211.248 62.4422C211.131 62.4926 211.014 62.5598 210.896 62.5934C210.712 62.6773 210.528 62.7445 210.344 62.8117C210.26 62.8452 210.176 62.8788 210.076 62.9124C210.042 62.9124 210.009 62.946 209.959 62.9628C209.808 63.0132 209.674 63.0635 209.523 63.1139C209.289 63.1811 209.054 63.2483 208.82 63.3154C208.769 63.3154 208.719 63.3322 208.669 63.349C208.468 63.3994 208.267 63.4498 208.066 63.4834C207.865 63.5337 207.647 63.5673 207.43 63.6009C207.346 63.6009 207.279 63.6345 207.195 63.6345C206.994 63.6681 206.793 63.6849 206.575 63.7017C206.559 63.7017 206.525 63.7017 206.508 63.7017C206.257 63.7184 206.023 63.752 205.772 63.752C205.52 63.752 205.252 63.7688 205.001 63.7688C204.783 63.7688 204.566 63.7688 204.348 63.7688C204.298 63.7688 204.231 63.7688 204.181 63.7688C203.963 63.7688 203.745 63.7352 203.527 63.7185C203.41 63.7185 203.276 63.7017 203.159 63.6849C203.025 63.6849 202.908 63.6513 202.79 63.6345C202.606 63.6009 202.439 63.5841 202.254 63.5505C202.254 63.5505 202.221 63.5505 202.204 63.5505C202.087 63.5505 201.97 63.5001 201.869 63.4834C201.752 63.4498 201.618 63.433 201.501 63.3994C201.451 63.3994 201.4 63.3826 201.35 63.3658C201.233 63.349 201.132 63.3154 201.032 63.2818C200.931 63.2483 200.831 63.2315 200.73 63.1979C200.697 63.1979 200.68 63.1979 200.647 63.1643C200.563 63.1307 200.479 63.1139 200.395 63.0803C200.395 63.0803 200.379 63.0803 200.362 63.0803C200.278 63.0468 200.211 63.03 200.127 62.9964C199.893 62.9124 199.675 62.8284 199.441 62.7445C199.374 62.7277 199.307 62.6941 199.257 62.6773C199.173 62.6437 199.072 62.6101 198.989 62.5598C198.955 62.5598 198.905 62.5262 198.871 62.5094C198.871 62.5094 198.838 62.5094 198.821 62.5094C198.804 62.5094 198.771 62.4926 198.754 62.4758C198.754 62.4758 198.721 62.4758 198.704 62.459C198.603 62.4086 198.503 62.3582 198.402 62.3079C198.369 62.2911 198.335 62.2743 198.302 62.2575C198.302 62.2575 198.268 62.2407 198.252 62.2239L198.067 62.1232C197.933 62.056 197.799 61.9888 197.682 61.9049C197.548 61.8377 197.431 61.7537 197.297 61.6866C197.297 61.6866 197.264 61.6866 197.247 61.6698C197.213 61.6698 197.18 61.6362 197.146 61.6194C197.146 61.6194 197.113 61.6194 197.113 61.5858C197.113 61.5858 197.113 61.5858 197.096 61.5858C196.912 61.4683 196.728 61.3339 196.543 61.2164C196.426 61.1492 196.309 61.0652 196.208 60.9813C196.091 60.8973 195.991 60.8133 195.873 60.7294C195.84 60.6958 195.806 60.679 195.773 60.6454C195.739 60.6286 195.706 60.595 195.672 60.5615C195.639 60.5615 195.622 60.5279 195.606 60.5111C195.572 60.4775 195.539 60.4439 195.505 60.4271C195.321 60.276 195.137 60.1081 194.952 59.9401C194.936 59.9233 194.902 59.9065 194.885 59.8898C194.785 59.8058 194.701 59.7218 194.617 59.6379C194.5 59.5371 194.4 59.4196 194.282 59.3188C194.182 59.2013 194.081 59.1005 193.981 58.983C193.931 58.9326 193.897 58.8654 193.847 58.815L193.763 58.7143C193.763 58.7143 193.73 58.6807 193.713 58.6639C193.612 58.5463 193.529 58.4288 193.428 58.328C193.395 58.2945 193.361 58.2609 193.328 58.2105C193.328 58.2105 193.328 58.1769 193.294 58.1769C193.244 58.0929 193.177 58.0258 193.127 57.9418C193.11 57.9082 193.077 57.8914 193.077 57.8579C193.077 57.8579 193.043 57.8243 193.043 57.8075C193.043 57.8075 193.026 57.7739 193.01 57.7571C192.976 57.7235 192.959 57.6731 192.926 57.6395C192.909 57.606 192.876 57.5892 192.876 57.5556C192.842 57.5052 192.809 57.4548 192.775 57.4045C192.708 57.2869 192.624 57.1694 192.557 57.0518C192.323 56.6824 192.105 56.2961 191.904 55.9099C191.904 55.9099 191.904 55.9099 191.904 55.8931C191.82 55.7084 191.72 55.5069 191.636 55.3222C191.636 55.3054 191.619 55.2718 191.603 55.255C191.603 55.2046 191.569 55.171 191.552 55.1207C191.552 55.0871 191.519 55.0367 191.502 54.9863H233.758C234.411 54.9863 234.963 54.4993 235.064 53.8612C235.097 53.6093 235.131 53.3742 235.148 53.2063C235.181 53.0048 235.198 52.8201 235.215 52.6186C235.231 52.4339 235.248 52.2491 235.265 52.0644C235.265 51.8629 235.298 51.6614 235.315 51.4767C235.315 51.1912 235.349 50.9057 235.349 50.6203C235.349 50.3348 235.349 50.0325 235.349 49.7471C235.349 49.4784 235.349 49.2097 235.349 48.9242L235.282 48.7563ZM191.435 44.3399C191.619 43.8865 191.82 43.4499 192.055 43.03C192.289 42.6102 192.541 42.1904 192.809 41.8042C192.943 41.6027 193.077 41.418 193.227 41.2164C193.512 40.8302 193.83 40.4608 194.165 40.1081C194.165 40.1081 194.165 40.0914 194.182 40.0746C194.333 39.9066 194.5 39.7387 194.668 39.5876C194.835 39.4196 195.003 39.2685 195.17 39.1174C195.254 39.0334 195.338 38.9663 195.438 38.8991C195.706 38.664 195.974 38.4625 196.259 38.261C196.443 38.1266 196.627 37.9923 196.828 37.8747C197.012 37.7404 197.213 37.6228 197.414 37.5053C197.532 37.4381 197.649 37.371 197.766 37.3038C197.816 37.2702 197.85 37.2534 197.9 37.2366C198.051 37.1527 198.185 37.0855 198.335 37.0183C198.486 36.9344 198.654 36.8672 198.804 36.7832C198.955 36.7161 199.123 36.6321 199.29 36.5649C199.508 36.481 199.726 36.397 199.943 36.313C199.943 36.313 199.943 36.313 199.96 36.313C200.178 36.2459 200.395 36.1619 200.63 36.0947C201.082 35.9604 201.551 35.8428 202.02 35.7421C202.723 35.5909 203.46 35.507 204.197 35.4734C204.448 35.4734 204.7 35.4734 204.934 35.4734C205.587 35.4734 206.24 35.5238 206.877 35.6077C207.095 35.6413 207.296 35.6581 207.513 35.7085C207.731 35.7421 207.932 35.7757 208.133 35.826C208.334 35.8596 208.518 35.91 208.702 35.9604C208.753 35.9604 208.82 35.994 208.87 36.0108C209.021 36.0611 209.188 36.0947 209.356 36.1451C209.557 36.1955 209.758 36.2794 209.942 36.3466C209.975 36.3466 210.009 36.3634 210.042 36.3802C210.042 36.3802 210.076 36.3802 210.093 36.397C210.243 36.4474 210.377 36.4978 210.511 36.5649C210.545 36.5649 210.578 36.5817 210.595 36.5985C211.248 36.8672 211.885 37.1862 212.488 37.5389C212.688 37.6564 212.889 37.7908 213.074 37.9083C213.224 38.0091 213.358 38.093 213.509 38.1938C213.928 38.4961 214.347 38.8319 214.732 39.1678C214.899 39.3189 215.067 39.4868 215.234 39.6379C215.234 39.6379 215.268 39.6715 215.284 39.6883C216.641 41.0149 217.73 42.6102 218.45 44.3735H191.368L191.435 44.3399Z" fill="black"/>
<path d="M299.583 48.7563C299.583 48.622 299.583 48.5044 299.583 48.3701C299.583 48.0846 299.55 47.8159 299.533 47.5304C299.533 47.2954 299.5 47.077 299.483 46.8587C299.483 46.758 299.483 46.6572 299.449 46.5565C299.449 46.4725 299.449 46.3718 299.416 46.2878C299.382 46.0359 299.366 45.784 299.315 45.5321C299.282 45.2635 299.232 44.9948 299.181 44.7261C299.181 44.6086 299.148 44.4742 299.114 44.3567V44.3231C299.064 44.088 299.031 43.8697 298.98 43.6346C298.98 43.601 298.98 43.5506 298.947 43.5002C298.813 42.8789 298.662 42.2744 298.478 41.6699C298.411 41.418 298.327 41.1829 298.26 40.9478C298.026 40.2257 297.775 39.5204 297.507 38.8319C297.356 38.4625 297.205 38.093 297.038 37.7236C296.971 37.5557 296.887 37.3878 296.803 37.2198C296.719 37.0351 296.619 36.8336 296.518 36.6489C296.435 36.4642 296.334 36.2962 296.251 36.1115C295.966 35.5742 295.681 35.0536 295.363 34.5498C295.279 34.4155 295.195 34.2811 295.112 34.13C294.994 33.9285 294.86 33.7438 294.743 33.5591C294.559 33.2904 294.358 33.0049 294.174 32.7362C293.906 32.35 293.42 31.7455 293.135 31.376C293.018 31.2249 292.901 31.0738 292.784 30.9394C292.097 30.1334 291.377 29.3609 290.623 28.6388C290.59 28.6053 290.573 28.5885 290.539 28.5717C290.439 28.4709 290.338 28.3702 290.221 28.2694C290.154 28.2022 290.087 28.1519 290.02 28.0847C289.953 28.0175 289.869 27.9503 289.802 27.8832C289.752 27.8496 289.719 27.816 289.669 27.7656C289.618 27.732 289.585 27.6817 289.535 27.6481C289.518 27.6481 289.484 27.6145 289.484 27.5977C289.367 27.4969 289.25 27.3962 289.149 27.2954C289.015 27.1947 288.898 27.0771 288.764 26.9764C288.714 26.926 288.647 26.8756 288.58 26.8252C288.479 26.7413 288.379 26.6573 288.262 26.5734C288.161 26.5062 288.061 26.4222 287.977 26.3551C287.927 26.3047 287.876 26.2711 287.826 26.2375C287.692 26.1368 287.575 26.036 287.441 25.952C287.391 25.9017 287.324 25.8681 287.257 25.8177C287.156 25.7337 287.039 25.6666 286.939 25.5826C286.855 25.5154 286.771 25.4651 286.671 25.3979C286.537 25.2971 286.403 25.2132 286.252 25.1124C286.202 25.0788 286.135 25.0452 286.084 24.9949C285.9 24.8773 285.716 24.7598 285.532 24.6422C285.364 24.5415 285.197 24.4407 285.029 24.34C284.912 24.2728 284.778 24.1888 284.661 24.1216L284.259 23.9034C284.259 23.9034 284.142 23.8362 284.075 23.8026C283.924 23.7186 283.757 23.6347 283.589 23.5507C283.455 23.4835 283.321 23.3996 283.187 23.3324C283.153 23.3324 283.137 23.2988 283.103 23.282C282.953 23.2149 282.802 23.1309 282.651 23.0637C282.534 23.0133 282.417 22.963 282.316 22.9126C281.696 22.6271 281.06 22.3584 280.407 22.1065C280.373 22.1065 280.34 22.073 280.306 22.0562C280.239 22.0226 280.156 22.0058 280.089 21.9722C279.971 21.9218 279.854 21.8882 279.754 21.8379C279.703 21.8379 279.67 21.8043 279.636 21.7875C279.486 21.7371 279.318 21.6867 279.168 21.6364C279.101 21.6028 279.017 21.586 278.933 21.5692C278.933 21.5692 278.9 21.5692 278.883 21.5692C278.883 21.5692 278.849 21.5692 278.833 21.5692C278.782 21.5524 278.732 21.5356 278.682 21.5188C278.632 21.5188 278.565 21.4852 278.514 21.4684C278.414 21.4348 278.33 21.4181 278.23 21.3845C278.029 21.3173 277.828 21.2669 277.61 21.2165C277.375 21.1494 277.124 21.0822 276.89 21.0318H276.856C276.856 21.0318 276.823 21.0318 276.806 21.0318C276.756 21.0318 276.689 20.9982 276.639 20.9982C276.521 20.9647 276.387 20.9311 276.27 20.9143C276.27 20.9143 276.237 20.9143 276.22 20.9143C275.952 20.8471 275.684 20.7967 275.433 20.7463C275.399 20.7463 275.382 20.7463 275.366 20.7463C275.315 20.7463 275.282 20.7464 275.232 20.7296C275.114 20.696 274.997 20.6792 274.88 20.6624C274.813 20.6624 274.763 20.6456 274.696 20.6288C274.679 20.6288 274.646 20.6288 274.629 20.6288C274.394 20.5784 274.177 20.5448 273.942 20.5113C273.674 20.4609 273.406 20.4441 273.138 20.4105C272.937 20.3769 272.753 20.3601 272.552 20.3433C272.502 20.3433 272.468 20.3433 272.435 20.3433C272.117 20.3097 271.798 20.293 271.497 20.2594C271.346 20.2594 271.195 20.2426 271.061 20.2258C271.011 20.2258 270.944 20.2258 270.894 20.2258C270.86 20.2258 270.827 20.2258 270.777 20.2258C270.559 20.2258 270.341 20.2258 270.124 20.209C269.872 20.209 269.621 20.209 269.353 20.209C254.447 20.209 242.054 30.6372 239.508 44.3735C239.19 46.0695 239.022 47.8159 239.022 49.5959C239.022 51.3759 239.19 53.1392 239.508 54.852C242.054 68.5883 254.447 78.9997 269.336 78.9997C269.588 78.9997 269.856 78.9997 270.107 78.9997C270.341 78.9997 270.576 78.9997 270.81 78.9829C270.81 78.9829 270.827 78.9829 270.844 78.9829C270.877 78.9829 270.911 78.9829 270.944 78.9829C271.078 78.9829 271.212 78.9829 271.346 78.9661C271.447 78.9661 271.564 78.9661 271.664 78.9493C271.815 78.9493 271.966 78.9157 272.117 78.8989C272.217 78.8989 272.318 78.8989 272.418 78.8653C272.452 78.8653 272.468 78.8653 272.485 78.8653C272.686 78.8485 272.87 78.8149 273.071 78.7982C273.105 78.7982 273.138 78.7982 273.172 78.7982C273.239 78.7982 273.306 78.7981 273.373 78.7646C273.607 78.731 273.842 78.6974 274.093 78.6638C274.294 78.6302 274.478 78.6134 274.679 78.5631H274.712C274.947 78.5127 275.181 78.4791 275.416 78.4287C275.634 78.3783 275.851 78.3448 276.069 78.2944C276.103 78.2944 276.119 78.2944 276.136 78.2944C276.136 78.2944 276.17 78.2944 276.186 78.2944C276.387 78.244 276.605 78.1936 276.806 78.1432C276.839 78.1432 276.856 78.1432 276.873 78.1264C276.89 78.1264 276.906 78.1264 276.923 78.1264C277.107 78.0761 277.275 78.0425 277.459 77.9921C277.509 77.9921 277.543 77.9585 277.593 77.9417C277.694 77.9081 277.794 77.8914 277.895 77.8578C278.012 77.8242 278.112 77.7906 278.23 77.757C278.28 77.757 278.33 77.7234 278.38 77.7066L278.632 77.6227C278.916 77.5387 279.201 77.438 279.486 77.354C279.519 77.354 279.536 77.3372 279.569 77.3204C279.62 77.3204 279.687 77.2868 279.737 77.27C279.971 77.1861 280.189 77.1021 280.424 77.0182C280.457 77.0182 280.491 76.9846 280.524 76.9846C280.625 76.9342 280.725 76.9006 280.842 76.8502C281.094 76.7495 281.328 76.6487 281.579 76.548C281.579 76.548 281.613 76.5479 281.629 76.5312C281.696 76.4976 281.763 76.4808 281.83 76.4472C281.881 76.4472 281.914 76.4136 281.964 76.3968C282.031 76.3632 282.115 76.3296 282.199 76.2961C282.35 76.2289 282.484 76.1617 282.618 76.0946C282.668 76.061 282.735 76.0442 282.785 76.0106C282.936 75.9434 283.07 75.8762 283.221 75.7923C283.304 75.7419 283.388 75.7083 283.472 75.6579C283.572 75.6076 283.673 75.5572 283.79 75.5068C283.874 75.4564 283.974 75.4061 284.058 75.3557C284.192 75.2885 284.326 75.2045 284.46 75.1374C284.862 74.9191 285.247 74.684 285.632 74.4489C285.682 74.4153 285.733 74.3985 285.766 74.3649C285.766 74.3649 285.8 74.3649 285.8 74.3313C285.816 74.3313 285.85 74.2978 285.867 74.281C285.917 74.2474 285.967 74.2138 286.017 74.1802C286.017 74.1802 286.034 74.1802 286.051 74.1634C286.118 74.113 286.168 74.0795 286.235 74.0459C286.235 74.0459 286.269 74.0459 286.285 74.0291C286.319 74.0123 286.352 73.9787 286.403 73.9619C286.453 73.9283 286.503 73.8947 286.553 73.8611C286.553 73.8611 286.553 73.8611 286.57 73.8611C286.637 73.8276 286.704 73.7772 286.771 73.7268C286.838 73.6764 286.905 73.6428 286.972 73.5925C287.173 73.4581 287.374 73.3238 287.558 73.1726C287.759 73.0215 287.943 72.8872 288.144 72.736C288.295 72.6185 288.446 72.5009 288.597 72.3834C288.697 72.2994 288.814 72.2155 288.915 72.1315C289.032 72.0308 289.149 71.93 289.267 71.8292C289.451 71.6781 289.635 71.5102 289.802 71.3591C289.987 71.2079 290.154 71.04 290.338 70.8721C290.523 70.7042 290.69 70.5362 290.858 70.3683C290.891 70.3347 290.925 70.3011 290.958 70.2675C291.394 69.747 291.377 68.9745 290.891 68.4707L281.847 59.3188C281.345 58.815 280.574 58.815 280.038 59.2516C280.038 59.2516 280.005 59.2852 279.988 59.302C279.988 59.302 279.955 59.3356 279.955 59.3524C278.816 60.5279 277.476 61.5186 275.985 62.2575H275.952C275.935 62.2575 275.902 62.2911 275.885 62.2911C275.768 62.3415 275.667 62.3918 275.55 62.4422C275.433 62.4926 275.315 62.5598 275.198 62.5934C275.014 62.6773 274.83 62.7445 274.646 62.8117C274.562 62.8452 274.478 62.8788 274.378 62.9124C274.344 62.9124 274.311 62.946 274.26 62.9628C274.11 63.0132 273.976 63.0635 273.825 63.1139C273.59 63.1811 273.356 63.2483 273.122 63.3154C273.071 63.3154 273.021 63.3322 272.971 63.349C272.77 63.3994 272.569 63.4498 272.368 63.4834C272.167 63.5337 271.949 63.5673 271.731 63.6009C271.648 63.6009 271.581 63.6345 271.497 63.6345C271.296 63.6681 271.095 63.6849 270.877 63.7017C270.86 63.7017 270.827 63.7017 270.81 63.7017C270.559 63.7184 270.325 63.752 270.073 63.752C269.822 63.752 269.554 63.7688 269.303 63.7688C269.085 63.7688 268.867 63.7688 268.65 63.7688C268.599 63.7688 268.533 63.7688 268.482 63.7688C268.265 63.7688 268.047 63.7352 267.829 63.7185C267.712 63.7185 267.578 63.7017 267.461 63.6849C267.327 63.6849 267.209 63.6513 267.092 63.6345C266.908 63.6009 266.74 63.5841 266.556 63.5505C266.556 63.5505 266.523 63.5505 266.506 63.5505C266.389 63.5505 266.272 63.5002 266.171 63.4834C266.054 63.4498 265.92 63.433 265.803 63.3994C265.752 63.3994 265.702 63.3826 265.652 63.3658C265.535 63.349 265.434 63.3154 265.334 63.2818C265.233 63.2483 265.133 63.2315 265.032 63.1979C264.999 63.1979 264.982 63.1979 264.948 63.1643C264.865 63.1307 264.781 63.1139 264.697 63.0803C264.697 63.0803 264.68 63.0803 264.664 63.0803C264.58 63.0468 264.513 63.03 264.429 62.9964C264.195 62.9124 263.977 62.8284 263.743 62.7445C263.676 62.7277 263.609 62.6941 263.558 62.6773C263.475 62.6437 263.374 62.6101 263.29 62.5598C263.257 62.5598 263.207 62.5262 263.173 62.5094C263.173 62.5094 263.14 62.5094 263.123 62.5094C263.106 62.5094 263.073 62.4926 263.056 62.4758C263.056 62.4758 263.022 62.4758 263.006 62.459C262.905 62.4086 262.805 62.3583 262.704 62.3079C262.671 62.2911 262.637 62.2743 262.604 62.2575C262.604 62.2575 262.57 62.2407 262.553 62.2239L262.369 62.1232C262.235 62.056 262.101 61.9888 261.984 61.9049C261.85 61.8377 261.733 61.7537 261.599 61.6866C261.599 61.6866 261.565 61.6866 261.549 61.6698C261.515 61.6698 261.482 61.6362 261.448 61.6194C261.448 61.6194 261.415 61.6194 261.415 61.5858C261.415 61.5858 261.415 61.5858 261.398 61.5858C261.214 61.4683 261.029 61.3339 260.845 61.2164C260.728 61.1492 260.611 61.0652 260.51 60.9813C260.393 60.8973 260.292 60.8133 260.175 60.7294C260.142 60.6958 260.108 60.679 260.075 60.6454C260.041 60.6286 260.008 60.595 259.974 60.5615C259.941 60.5615 259.924 60.5279 259.907 60.5111C259.874 60.4775 259.84 60.4439 259.807 60.4271C259.623 60.276 259.438 60.1081 259.254 59.9401C259.237 59.9233 259.204 59.9066 259.187 59.8898C259.087 59.8058 259.003 59.7218 258.919 59.6379C258.802 59.5371 258.701 59.4196 258.584 59.3188C258.484 59.2013 258.383 59.1005 258.283 58.983C258.232 58.9326 258.199 58.8654 258.149 58.815L258.065 58.7143C258.065 58.7143 258.031 58.6807 258.015 58.6639C257.914 58.5463 257.83 58.4288 257.73 58.3281C257.697 58.2945 257.663 58.2609 257.63 58.2105C257.63 58.2105 257.63 58.1769 257.596 58.1769C257.546 58.0929 257.479 58.0258 257.429 57.9418C257.412 57.9082 257.378 57.8914 257.378 57.8579C257.378 57.8579 257.345 57.8243 257.345 57.8075C257.345 57.8075 257.328 57.7739 257.311 57.7571C257.278 57.7235 257.261 57.6731 257.228 57.6395C257.211 57.606 257.177 57.5892 257.177 57.5556C257.144 57.5052 257.11 57.4548 257.077 57.4045C257.01 57.2869 256.926 57.1694 256.859 57.0518C256.625 56.6824 256.407 56.2962 256.206 55.9099C256.206 55.9099 256.206 55.9099 256.206 55.8931C256.122 55.7084 256.022 55.5069 255.938 55.3222C255.938 55.3054 255.921 55.2718 255.904 55.255C255.904 55.2046 255.871 55.1711 255.854 55.1207C255.854 55.0871 255.821 55.0367 255.804 54.9863H298.059C298.712 54.9863 299.265 54.4993 299.366 53.8612C299.399 53.6093 299.433 53.3742 299.449 53.2063C299.483 53.0048 299.5 52.8201 299.516 52.6186C299.533 52.4339 299.55 52.2491 299.567 52.0644C299.567 51.8629 299.6 51.6614 299.617 51.4767C299.617 51.1912 299.65 50.9057 299.65 50.6203C299.65 50.3348 299.65 50.0325 299.65 49.7471C299.65 49.4784 299.65 49.2097 299.65 48.9242L299.583 48.7563ZM255.737 44.3399C255.921 43.8865 256.122 43.4499 256.357 43.0301C256.591 42.6102 256.842 42.1904 257.11 41.8042C257.244 41.6027 257.378 41.418 257.529 41.2165C257.814 40.8302 258.132 40.4608 258.467 40.1082C258.467 40.1082 258.467 40.0914 258.484 40.0746C258.634 39.9066 258.802 39.7387 258.969 39.5876C259.137 39.4196 259.304 39.2685 259.472 39.1174C259.556 39.0334 259.639 38.9663 259.74 38.8991C260.008 38.664 260.276 38.4625 260.56 38.261C260.745 38.1266 260.929 37.9923 261.13 37.8747C261.314 37.7404 261.515 37.6229 261.716 37.5053C261.833 37.4381 261.95 37.371 262.068 37.3038C262.118 37.2702 262.152 37.2534 262.202 37.2366C262.352 37.1527 262.486 37.0855 262.637 37.0183C262.788 36.9344 262.955 36.8672 263.106 36.7832C263.257 36.7161 263.424 36.6321 263.592 36.5649C263.81 36.481 264.027 36.397 264.245 36.313C264.245 36.313 264.245 36.313 264.262 36.313C264.479 36.2459 264.697 36.1619 264.932 36.0947C265.384 35.9604 265.853 35.8428 266.322 35.7421C267.025 35.5909 267.762 35.507 268.499 35.4734C268.75 35.4734 269.001 35.4734 269.236 35.4734C269.889 35.4734 270.542 35.5238 271.179 35.6077C271.396 35.6413 271.597 35.6581 271.815 35.7085C272.033 35.7421 272.234 35.7757 272.435 35.826C272.636 35.8596 272.82 35.91 273.004 35.9604C273.054 35.9604 273.121 35.994 273.172 36.0108C273.322 36.0611 273.49 36.0947 273.657 36.1451C273.858 36.1955 274.059 36.2794 274.244 36.3466C274.277 36.3466 274.311 36.3634 274.344 36.3802C274.344 36.3802 274.378 36.3802 274.394 36.397C274.545 36.4474 274.679 36.4978 274.813 36.5649C274.846 36.5649 274.88 36.5817 274.897 36.5985C275.55 36.8672 276.186 37.1862 276.789 37.5389C276.99 37.6564 277.191 37.7908 277.375 37.9083C277.526 38.0091 277.66 38.093 277.811 38.1938C278.23 38.4961 278.648 38.8319 279.034 39.1678C279.201 39.3189 279.368 39.4868 279.536 39.638C279.536 39.638 279.569 39.6715 279.586 39.6883C280.943 41.0149 282.031 42.6102 282.752 44.3735H255.67L255.737 44.3399Z" fill="black"/>
<defs>
<linearGradient id="paint0_linear_150_571" x1="87.2073" y1="45.1035" x2="66.9745" y2="29.2593" gradientUnits="userSpaceOnUse">
<stop stop-color="#3604A5"/>
<stop offset="1" stop-color="#BC16FE"/>
</linearGradient>
<linearGradient id="paint1_linear_150_571" x1="93.2287" y1="54.1058" x2="113.444" y2="69.9497" gradientUnits="userSpaceOnUse">
<stop stop-color="#3604A5"/>
<stop offset="1" stop-color="#BC16FE"/>
</linearGradient>
</defs>
</svg>
